<svg xmlns="http://www.w3.org/2000/svg" width="300" height="160"><path d="M139,65L169,64L147,52Z" fill="#84bbdb" stroke="#84bbdb" stroke-width="1.51"/><path d="M157,108L183,83L169,64Z" fill="#5da3d0" stroke="#5da3d0" stroke-width="1.51"/><path d="M169,64L177,35L147,52Z" fill="#8abadc" stroke="#8abadc" stroke-width="1.51"/><path d="M214,67L177,35L169,64Z" fill="#7ab0d5" stroke="#7ab0d5" stroke-width="1.51"/><path d="M139,65L157,108L169,64Z" fill="#6aacd5" stroke="#6aacd5" stroke-width="1.51"/><path d="M115,67L122,86L139,65Z" fill="#86bcdc" stroke="#86bcdc" stroke-width="1.51"/><path d="M118,30L115,67L139,65Z" fill="#9dc8e2" stroke="#9dc8e2" stroke-width="1.51"/><path d="M118,30L139,65L147,52Z" fill="#9bc6e2" stroke="#9bc6e2" stroke-width="1.51"/><path d="M122,86L141,105L139,65Z" fill="#72b0d7" stroke="#72b0d7" stroke-width="1.51"/><path d="M141,105L157,108L139,65Z" fill="#62a6d2" stroke="#62a6d2" stroke-width="1.51"/><path d="M177,35L168,20L147,52Z" fill="#97c0e1" stroke="#97c0e1" stroke-width="1.51"/><path d="M140,10L118,30L147,52Z" fill="#aacde6" stroke="#aacde6" stroke-width="1.51"/><path d="M118,30L104,44L115,67Z" fill="#abcfe5" stroke="#abcfe5" stroke-width="1.51"/><path d="M115,67L86,89L122,86Z" fill="#88bcdc" stroke="#88bcdc" stroke-width="1.51"/><path d="M168,20L140,10L147,52Z" fill="#a2c9e5" stroke="#a2c9e5" stroke-width="1.51"/><path d="M183,83L214,67L169,64Z" fill="#64a5d0" stroke="#64a5d0" stroke-width="1.51"/><path d="M175,120L199,101L183,83Z" fill="#4291c6" stroke="#4291c6" stroke-width="1.51"/><path d="M104,44L96,61L115,67Z" fill="#a5cde3" stroke="#a5cde3" stroke-width="1.51"/><path d="M122,86L119,116L141,105Z" fill="#68a6d1" stroke="#68a6d1" stroke-width="1.51"/><path d="M157,108L175,120L183,83Z" fill="#4a95c8" stroke="#4a95c8" stroke-width="1.51"/><path d="M157,139L175,120L157,108Z" fill="#4388c1" stroke="#4388c1" stroke-width="1.51"/><path d="M199,101L214,67L183,83Z" fill="#5098ca" stroke="#5098ca" stroke-width="1.51"/><path d="M177,35L199,19L168,20Z" fill="#97bedf" stroke="#97bedf" stroke-width="1.51"/><path d="M118,30L112,21L104,44Z" fill="#b8d6e9" stroke="#b8d6e9" stroke-width="1.51"/><path d="M104,44L75,56L96,61Z" fill="#b0d1e7" stroke="#b0d1e7" stroke-width="1.51"/><path d="M140,10L112,21L118,30Z" fill="#b8d6ea" stroke="#b8d6ea" stroke-width="1.51"/><path d="M86,89L119,116L122,86Z" fill="#79b1d5" stroke="#79b1d5" stroke-width="1.51"/><path d="M141,105L157,139L157,108Z" fill="#4c90c6" stroke="#4c90c6" stroke-width="1.51"/><path d="M168,20L159,-14L140,10Z" fill="#aed0e9" stroke="#aed0e9" stroke-width="1.51"/><path d="M210,31L199,19L177,35Z" fill="#8fb6db" stroke="#8fb6db" stroke-width="1.51"/><path d="M217,46L210,31L177,35Z" fill="#88b0d8" stroke="#88b0d8" stroke-width="1.51"/><path d="M214,67L217,46L177,35Z" fill="#7cabd4" stroke="#7cabd4" stroke-width="1.51"/><path d="M214,67L224,58L217,46Z" fill="#6fa1ce" stroke="#6fa1ce" stroke-width="1.51"/><path d="M236,25L205,-1L210,31Z" fill="#90b0d9" stroke="#90b0d9" stroke-width="1.51"/><path d="M229,90L224,58L214,67Z" fill="#5996c9" stroke="#5996c9" stroke-width="1.51"/><path d="M112,21L100,19L104,44Z" fill="#bdd9ec" stroke="#bdd9ec" stroke-width="1.51"/><path d="M104,-6L100,19L112,21Z" fill="#c8dfef" stroke="#c8dfef" stroke-width="1.51"/><path d="M96,61L86,89L115,67Z" fill="#97c4e0" stroke="#97c4e0" stroke-width="1.51"/><path d="M75,56L86,89L96,61Z" fill="#a3cae3" stroke="#a3cae3" stroke-width="1.51"/><path d="M175,120L202,121L199,101Z" fill="#3784bf" stroke="#3784bf" stroke-width="1.51"/><path d="M199,101L229,90L214,67Z" fill="#4990c6" stroke="#4990c6" stroke-width="1.51"/><path d="M132,145L157,139L141,105Z" fill="#4e89c0" stroke="#4e89c0" stroke-width="1.51"/><path d="M175,120L191,142L202,121Z" fill="#307ab8" stroke="#307ab8" stroke-width="1.51"/><path d="M119,116L132,145L141,105Z" fill="#5b94c7" stroke="#5b94c7" stroke-width="1.51"/><path d="M86,89L105,123L119,116Z" fill="#75a7d1" stroke="#75a7d1" stroke-width="1.51"/><path d="M199,19L187,-4L168,20Z" fill="#9ec2e1" stroke="#9ec2e1" stroke-width="1.51"/><path d="M140,10L122,-6L112,21Z" fill="#bfdaec" stroke="#bfdaec" stroke-width="1.51"/><path d="M205,-1L187,-4L199,19Z" fill="#9fbee0" stroke="#9fbee0" stroke-width="1.51"/><path d="M159,-14L122,-6L140,10Z" fill="#bad7ec" stroke="#bad7ec" stroke-width="1.51"/><path d="M202,121L229,90L199,101Z" fill="#3684c0" stroke="#3684c0" stroke-width="1.51"/><path d="M187,-4L159,-14L168,20Z" fill="#abcbe6" stroke="#abcbe6" stroke-width="1.51"/><path d="M69,19L75,56L104,44Z" fill="#c2daed" stroke="#c2daed" stroke-width="1.51"/><path d="M105,123L132,145L119,116Z" fill="#6293c5" stroke="#6293c5" stroke-width="1.51"/><path d="M177,-35L144,-35L159,-14Z" fill="#b0d0e9" stroke="#b0d0e9" stroke-width="1.51"/><path d="M210,31L205,-1L199,19Z" fill="#95b7db" stroke="#95b7db" stroke-width="1.51"/><path d="M236,25L210,31L217,46Z" fill="#85a8d4" stroke="#85a8d4" stroke-width="1.51"/><path d="M202,121L237,129L229,90Z" fill="#2977b9" stroke="#2977b9" stroke-width="1.51"/><path d="M174,150L191,142L175,120Z" fill="#3376b4" stroke="#3376b4" stroke-width="1.51"/><path d="M174,150L175,120L157,139Z" fill="#3b7bb7" stroke="#3b7bb7" stroke-width="1.51"/><path d="M155,176L174,150L157,139Z" fill="#3a6ca3" stroke="#3a6ca3" stroke-width="1.51"/><path d="M69,19L60,44L75,56Z" fill="#c9dcf0" stroke="#c9dcf0" stroke-width="1.51"/><path d="M122,-6L104,-6L112,21Z" fill="#c9e1ef" stroke="#c9e1ef" stroke-width="1.51"/><path d="M111,-43L104,-6L122,-6Z" fill="#cbe2f0" stroke="#cbe2f0" stroke-width="1.51"/><path d="M86,89L78,126L105,123Z" fill="#7ba7d3" stroke="#7ba7d3" stroke-width="1.51"/><path d="M75,56L69,93L86,89Z" fill="#9bc4e2" stroke="#9bc4e2" stroke-width="1.51"/><path d="M224,58L236,25L217,46Z" fill="#7ca2d1" stroke="#7ca2d1" stroke-width="1.51"/><path d="M258,41L236,25L224,58Z" fill="#7b9dcc" stroke="#7b9dcc" stroke-width="1.51"/><path d="M229,90L247,73L224,58Z" fill="#548fc5" stroke="#548fc5" stroke-width="1.51"/><path d="M265,93L247,73L229,90Z" fill="#4281bc" stroke="#4281bc" stroke-width="1.51"/><path d="M53,74L56,90L69,93Z" fill="#9bc4e2" stroke="#9bc4e2" stroke-width="1.51"/><path d="M69,19L104,44L100,19Z" fill="#c5dcee" stroke="#c5dcee" stroke-width="1.51"/><path d="M104,-6L69,19L100,19Z" fill="#d0e3f2" stroke="#d0e3f2" stroke-width="1.51"/><path d="M105,123L85,139L132,145Z" fill="#6790c2" stroke="#6790c2" stroke-width="1.51"/><path d="M69,93L78,126L86,89Z" fill="#87b3d9" stroke="#87b3d9" stroke-width="1.51"/><path d="M159,-14L144,-35L122,-6Z" fill="#bad7ec" stroke="#bad7ec" stroke-width="1.51"/><path d="M58,-12L53,8L69,19Z" fill="#e1ecf8" stroke="#e1ecf8" stroke-width="1.51"/><path d="M177,-35L159,-14L187,-4Z" fill="#aacae6" stroke="#aacae6" stroke-width="1.51"/><path d="M78,126L85,139L105,123Z" fill="#7499c9" stroke="#7499c9" stroke-width="1.51"/><path d="M69,93L48,121L78,126Z" fill="#86acd6" stroke="#86acd6" stroke-width="1.51"/><path d="M78,126L67,147L85,139Z" fill="#7894c6" stroke="#7894c6" stroke-width="1.51"/><path d="M53,74L69,93L75,56Z" fill="#a5cae5" stroke="#a5cae5" stroke-width="1.51"/><path d="M60,44L53,74L75,56Z" fill="#b8d6ea" stroke="#b8d6ea" stroke-width="1.51"/><path d="M191,142L223,141L202,121Z" fill="#266db0" stroke="#266db0" stroke-width="1.51"/><path d="M214,184L223,141L191,142Z" fill="#1f5a98" stroke="#1f5a98" stroke-width="1.51"/><path d="M205,-1L177,-35L187,-4Z" fill="#a4c4e2" stroke="#a4c4e2" stroke-width="1.51"/><path d="M197,-50L177,-35L205,-1Z" fill="#a3c2e2" stroke="#a3c2e2" stroke-width="1.51"/><path d="M223,141L237,129L202,121Z" fill="#1f6aaf" stroke="#1f6aaf" stroke-width="1.51"/><path d="M236,25L244,0L205,-1Z" fill="#94afd8" stroke="#94afd8" stroke-width="1.51"/><path d="M247,73L258,41L224,58Z" fill="#6994c6" stroke="#6994c6" stroke-width="1.51"/><path d="M272,57L258,41L247,73Z" fill="#668ec0" stroke="#668ec0" stroke-width="1.51"/><path d="M132,145L155,176L157,139Z" fill="#4372a8" stroke="#4372a8" stroke-width="1.51"/><path d="M174,150L184,174L191,142Z" fill="#2d649e" stroke="#2d649e" stroke-width="1.51"/><path d="M85,139L133,171L132,145Z" fill="#5b7eaf" stroke="#5b7eaf" stroke-width="1.51"/><path d="M237,129L256,107L229,90Z" fill="#2973b4" stroke="#2973b4" stroke-width="1.51"/><path d="M133,171L155,176L132,145Z" fill="#476fa1" stroke="#476fa1" stroke-width="1.51"/><path d="M266,23L244,0L236,25Z" fill="#8aa2cf" stroke="#8aa2cf" stroke-width="1.51"/><path d="M155,176L184,174L174,150Z" fill="#33649b" stroke="#33649b" stroke-width="1.51"/><path d="M256,107L265,93L229,90Z" fill="#3478b6" stroke="#3478b6" stroke-width="1.51"/><path d="M58,-12L69,19L104,-6Z" fill="#deeaf7" stroke="#deeaf7" stroke-width="1.51"/><path d="M69,19L53,8L60,44Z" fill="#d5e4f4" stroke="#d5e4f4" stroke-width="1.51"/><path d="M60,44L39,44L53,74Z" fill="#c0daec" stroke="#c0daec" stroke-width="1.51"/><path d="M244,0L231,-22L205,-1Z" fill="#99b3da" stroke="#99b3da" stroke-width="1.51"/><path d="M144,-35L111,-43L122,-6Z" fill="#c3ddee" stroke="#c3ddee" stroke-width="1.51"/><path d="M197,-50L111,-43L144,-35Z" fill="#b4d3eb" stroke="#b4d3eb" stroke-width="1.51"/><path d="M53,8L39,44L60,44Z" fill="#d3e3f3" stroke="#d3e3f3" stroke-width="1.51"/><path d="M21,102L48,121L56,90Z" fill="#93b9dc" stroke="#93b9dc" stroke-width="1.51"/><path d="M111,-43L87,-31L104,-6Z" fill="#d1e5f2" stroke="#d1e5f2" stroke-width="1.51"/><path d="M265,93L272,57L247,73Z" fill="#4e82bb" stroke="#4e82bb" stroke-width="1.51"/><path d="M258,41L266,23L236,25Z" fill="#809bca" stroke="#809bca" stroke-width="1.51"/><path d="M86,181L115,192L133,171Z" fill="#5b79a5" stroke="#5b79a5" stroke-width="1.51"/><path d="M48,121L67,147L78,126Z" fill="#7f9dcc" stroke="#7f9dcc" stroke-width="1.51"/><path d="M48,121L69,93L56,90Z" fill="#8fb8dc" stroke="#8fb8dc" stroke-width="1.51"/><path d="M259,-34L230,-31L231,-22Z" fill="#96acd5" stroke="#96acd5" stroke-width="1.51"/><path d="M290,37L266,23L258,41Z" fill="#7a90c1" stroke="#7a90c1" stroke-width="1.51"/><path d="M21,102L56,90L53,74Z" fill="#9ec4e3" stroke="#9ec4e3" stroke-width="1.51"/><path d="M231,-22L230,-31L205,-1Z" fill="#9ab5db" stroke="#9ab5db" stroke-width="1.51"/><path d="M177,-35L197,-50L144,-35Z" fill="#abcbe6" stroke="#abcbe6" stroke-width="1.51"/><path d="M259,-34L231,-22L244,0Z" fill="#95aad4" stroke="#95aad4" stroke-width="1.51"/><path d="M230,-31L197,-50L205,-1Z" fill="#9ebade" stroke="#9ebade" stroke-width="1.51"/><path d="M87,-31L58,-12L104,-6Z" fill="#dbe9f6" stroke="#dbe9f6" stroke-width="1.51"/><path d="M53,8L30,15L39,44Z" fill="#dce9f6" stroke="#dce9f6" stroke-width="1.51"/><path d="M265,93L304,98L272,57Z" fill="#3f73ab" stroke="#3f73ab" stroke-width="1.51"/><path d="M256,107L276,103L265,93Z" fill="#2b6eae" stroke="#2b6eae" stroke-width="1.51"/><path d="M278,111L276,103L256,107Z" fill="#2567a9" stroke="#2567a9" stroke-width="1.51"/><path d="M257,148L256,107L237,129Z" fill="#165fa7" stroke="#165fa7" stroke-width="1.51"/><path d="M257,148L237,129L223,141Z" fill="#135ba4" stroke="#135ba4" stroke-width="1.51"/><path d="M256,167L257,148L223,141Z" fill="#104e92" stroke="#104e92" stroke-width="1.51"/><path d="M275,140L278,111L256,107Z" fill="#175ea4" stroke="#175ea4" stroke-width="1.51"/><path d="M307,55L290,37L272,57Z" fill="#6781af" stroke="#6781af" stroke-width="1.51"/><path d="M87,-31L52,-19L58,-12Z" fill="#e2edf8" stroke="#e2edf8" stroke-width="1.51"/><path d="M58,-12L52,-19L53,8Z" fill="#e5eff9" stroke="#e5eff9" stroke-width="1.51"/><path d="M65,-46L52,-19L87,-31Z" fill="#e1ecf8" stroke="#e1ecf8" stroke-width="1.51"/><path d="M133,171L157,203L155,176Z" fill="#416c9f" stroke="#416c9f" stroke-width="1.51"/><path d="M194,207L214,184L184,174Z" fill="#255b95" stroke="#255b95" stroke-width="1.51"/><path d="M86,181L133,171L85,139Z" fill="#607ba7" stroke="#607ba7" stroke-width="1.51"/><path d="M266,23L275,11L244,0Z" fill="#8b9ecb" stroke="#8b9ecb" stroke-width="1.51"/><path d="M290,37L275,11L266,23Z" fill="#7f91bf" stroke="#7f91bf" stroke-width="1.51"/><path d="M290,37L258,41L272,57Z" fill="#708bbc" stroke="#708bbc" stroke-width="1.51"/><path d="M67,147L65,164L85,139Z" fill="#7489b9" stroke="#7489b9" stroke-width="1.51"/><path d="M42,139L65,164L67,147Z" fill="#798cba" stroke="#798cba" stroke-width="1.51"/><path d="M184,174L214,184L191,142Z" fill="#255b95" stroke="#255b95" stroke-width="1.51"/><path d="M179,198L184,174L155,176Z" fill="#32649a" stroke="#32649a" stroke-width="1.51"/><path d="M8,128L42,139L48,121Z" fill="#8aa4d0" stroke="#8aa4d0" stroke-width="1.51"/><path d="M52,-19L30,15L53,8Z" fill="#e7f1fa" stroke="#e7f1fa" stroke-width="1.51"/><path d="M48,121L42,139L67,147Z" fill="#819bca" stroke="#819bca" stroke-width="1.51"/><path d="M21,102L53,74L9,66Z" fill="#abcee7" stroke="#abcee7" stroke-width="1.51"/><path d="M65,164L86,181L85,139Z" fill="#6c7fab" stroke="#6c7fab" stroke-width="1.51"/><path d="M214,184L224,180L223,141Z" fill="#195190" stroke="#195190" stroke-width="1.51"/><path d="M157,203L179,198L155,176Z" fill="#37679c" stroke="#37679c" stroke-width="1.51"/><path d="M30,15L23,27L39,44Z" fill="#dce9f6" stroke="#dce9f6" stroke-width="1.51"/><path d="M115,192L157,203L133,171Z" fill="#4b71a1" stroke="#4b71a1" stroke-width="1.51"/><path d="M9,66L53,74L39,44Z" fill="#bfdaec" stroke="#bfdaec" stroke-width="1.51"/><path d="M307,55L272,57L304,98Z" fill="#4e75a6" stroke="#4e75a6" stroke-width="1.51"/><path d="M115,192L94,193L157,203Z" fill="#5475a3" stroke="#5475a3" stroke-width="1.51"/><path d="M86,181L94,193L115,192Z" fill="#627ba7" stroke="#627ba7" stroke-width="1.51"/><path d="M73,192L94,193L86,181Z" fill="#697eaa" stroke="#697eaa" stroke-width="1.51"/><path d="M304,98L265,93L276,103Z" fill="#2d69a5" stroke="#2d69a5" stroke-width="1.51"/><path d="M257,148L275,140L256,107Z" fill="#0f57a1" stroke="#0f57a1" stroke-width="1.51"/><path d="M256,167L275,140L257,148Z" fill="#09478d" stroke="#09478d" stroke-width="1.51"/><path d="M52,-19L10,-14L30,15Z" fill="#edf4fc" stroke="#edf4fc" stroke-width="1.51"/><path d="M-17,2L-6,41L23,27Z" fill="#e9f1fb" stroke="#e9f1fb" stroke-width="1.51"/><path d="M111,-43L65,-46L87,-31Z" fill="#d8e8f4" stroke="#d8e8f4" stroke-width="1.51"/><path d="M197,-50L65,-46L111,-43Z" fill="#c4deee" stroke="#c4deee" stroke-width="1.51"/><path d="M224,180L256,167L223,141Z" fill="#134c8c" stroke="#134c8c" stroke-width="1.51"/><path d="M282,-9L244,0L275,11Z" fill="#909eca" stroke="#909eca" stroke-width="1.51"/><path d="M282,-9L259,-34L244,0Z" fill="#92a2ce" stroke="#92a2ce" stroke-width="1.51"/><path d="M230,-31L259,-34L197,-50Z" fill="#99b1d9" stroke="#99b1d9" stroke-width="1.51"/><path d="M23,27L9,66L39,44Z" fill="#d1e3f2" stroke="#d1e3f2" stroke-width="1.51"/><path d="M157,203L194,207L179,198Z" fill="#30639a" stroke="#30639a" stroke-width="1.51"/><path d="M179,198L194,207L184,174Z" fill="#2a5f98" stroke="#2a5f98" stroke-width="1.51"/><path d="M214,184L240,201L224,180Z" fill="#164f8f" stroke="#164f8f" stroke-width="1.51"/><path d="M224,180L240,201L256,167Z" fill="#11498a" stroke="#11498a" stroke-width="1.51"/><path d="M65,-46L57,-46L52,-19Z" fill="#e4eef9" stroke="#e4eef9" stroke-width="1.51"/><path d="M-26,-48L57,-46L65,-46Z" fill="#edf4fc" stroke="#edf4fc" stroke-width="1.51"/><path d="M309,-8L282,-9L275,11Z" fill="#8a94bb" stroke="#8a94bb" stroke-width="1.51"/><path d="M65,164L73,192L86,181Z" fill="#6e80ab" stroke="#6e80ab" stroke-width="1.51"/><path d="M94,193L-9,210L157,203Z" fill="#6b7eaa" stroke="#6b7eaa" stroke-width="1.51"/><path d="M47,189L73,192L65,164Z" fill="#7383ad" stroke="#7383ad" stroke-width="1.51"/><path d="M304,98L276,103L278,111Z" fill="#26629f" stroke="#26629f" stroke-width="1.51"/><path d="M290,37L314,25L275,11Z" fill="#7a89b3" stroke="#7a89b3" stroke-width="1.51"/><path d="M308,127L304,98L278,111Z" fill="#1e5795" stroke="#1e5795" stroke-width="1.51"/><path d="M42,139L42,178L65,164Z" fill="#7685ae" stroke="#7685ae" stroke-width="1.51"/><path d="M24,165L42,178L42,139Z" fill="#7b87af" stroke="#7b87af" stroke-width="1.51"/><path d="M8,128L48,121L21,102Z" fill="#92b1d9" stroke="#92b1d9" stroke-width="1.51"/><path d="M-10,113L8,128L21,102Z" fill="#9bb7dc" stroke="#9bb7dc" stroke-width="1.51"/><path d="M194,207L240,201L214,184Z" fill="#1b5391" stroke="#1b5391" stroke-width="1.51"/><path d="M317,135L308,127L275,140Z" fill="#0d4586" stroke="#0d4586" stroke-width="1.51"/><path d="M275,140L308,127L278,111Z" fill="#135194" stroke="#135194" stroke-width="1.51"/><path d="M23,27L-6,41L9,66Z" fill="#d7e7f5" stroke="#d7e7f5" stroke-width="1.51"/><path d="M9,66L-13,88L21,102Z" fill="#aecfe8" stroke="#aecfe8" stroke-width="1.51"/><path d="M10,-14L23,27L30,15Z" fill="#eaf3fb" stroke="#eaf3fb" stroke-width="1.51"/><path d="M308,-27L282,-35L282,-9Z" fill="#8a93ba" stroke="#8a93ba" stroke-width="1.51"/><path d="M282,-9L282,-35L259,-34Z" fill="#8e9bc5" stroke="#8e9bc5" stroke-width="1.51"/><path d="M259,-34L282,-35L197,-50Z" fill="#95a9d3" stroke="#95a9d3" stroke-width="1.51"/><path d="M42,178L47,189L65,164Z" fill="#7684ae" stroke="#7684ae" stroke-width="1.51"/><path d="M73,192L-9,210L94,193Z" fill="#7584ae" stroke="#7584ae" stroke-width="1.51"/><path d="M21,189L47,189L42,178Z" fill="#7b87af" stroke="#7b87af" stroke-width="1.51"/><path d="M8,128L17,155L42,139Z" fill="#899cca" stroke="#899cca" stroke-width="1.51"/><path d="M17,155L24,165L42,139Z" fill="#828fb9" stroke="#828fb9" stroke-width="1.51"/><path d="M9,-44L10,-14L52,-19Z" fill="#eff6fd" stroke="#eff6fd" stroke-width="1.51"/><path d="M317,36L290,37L307,55Z" fill="#6c7faa" stroke="#6c7faa" stroke-width="1.51"/><path d="M317,36L314,25L290,37Z" fill="#7383ad" stroke="#7383ad" stroke-width="1.51"/><path d="M344,46L317,36L307,55Z" fill="#697ea9" stroke="#697ea9" stroke-width="1.51"/><path d="M304,98L325,84L307,55Z" fill="#416ca0" stroke="#416ca0" stroke-width="1.51"/><path d="M286,177L275,140L256,167Z" fill="#093c7d" stroke="#093c7d" stroke-width="1.51"/><path d="M8,128L0,139L17,155Z" fill="#8e9fcb" stroke="#8e9fcb" stroke-width="1.51"/><path d="M-16,68L-13,88L9,66Z" fill="#bbd8ec" stroke="#bbd8ec" stroke-width="1.51"/><path d="M-40,33L-16,68L-6,41Z" fill="#d8e8f4" stroke="#d8e8f4" stroke-width="1.51"/><path d="M-6,41L-16,68L9,66Z" fill="#cde3f0" stroke="#cde3f0" stroke-width="1.51"/><path d="M3,184L21,189L24,165Z" fill="#818bb2" stroke="#818bb2" stroke-width="1.51"/><path d="M-10,113L0,139L8,128Z" fill="#97add6" stroke="#97add6" stroke-width="1.51"/><path d="M-13,88L-10,113L21,102Z" fill="#a4c4e2" stroke="#a4c4e2" stroke-width="1.51"/><path d="M-39,87L-10,113L-13,88Z" fill="#a8c8e4" stroke="#a8c8e4" stroke-width="1.51"/><path d="M314,25L309,-8L275,11Z" fill="#818cb2" stroke="#818cb2" stroke-width="1.51"/><path d="M340,6L309,-8L314,25Z" fill="#828bb2" stroke="#828bb2" stroke-width="1.51"/><path d="M332,114L325,84L304,98Z" fill="#2a6098" stroke="#2a6098" stroke-width="1.51"/><path d="M269,207L286,177L256,167Z" fill="#093d7e" stroke="#093d7e" stroke-width="1.51"/><path d="M312,167L317,135L275,140Z" fill="#093a7a" stroke="#093a7a" stroke-width="1.51"/><path d="M308,127L332,114L304,98Z" fill="#1e5592" stroke="#1e5592" stroke-width="1.51"/><path d="M240,201L258,210L256,167Z" fill="#0d4586" stroke="#0d4586" stroke-width="1.51"/><path d="M194,207L258,210L240,201Z" fill="#144d8d" stroke="#144d8d" stroke-width="1.51"/><path d="M309,-8L308,-27L282,-9Z" fill="#878eb3" stroke="#878eb3" stroke-width="1.51"/><path d="M337,-10L308,-27L309,-8Z" fill="#878eb3" stroke="#878eb3" stroke-width="1.51"/><path d="M340,6L314,25L317,36Z" fill="#7986af" stroke="#7986af" stroke-width="1.51"/><path d="M10,-14L-17,2L23,27Z" fill="#f2f8fd" stroke="#f2f8fd" stroke-width="1.51"/><path d="M57,-46L9,-44L52,-19Z" fill="#eaf2fb" stroke="#eaf2fb" stroke-width="1.51"/><path d="M3,184L24,165L17,155Z" fill="#828bb2" stroke="#828bb2" stroke-width="1.51"/><path d="M24,165L21,189L42,178Z" fill="#7d89b0" stroke="#7d89b0" stroke-width="1.51"/><path d="M47,189L-9,210L73,192Z" fill="#7a87af" stroke="#7a87af" stroke-width="1.51"/><path d="M157,203L-9,210L194,207Z" fill="#5978a5" stroke="#5978a5" stroke-width="1.51"/><path d="M-13,-20L-17,2L10,-14Z" fill="#f7fbff" stroke="#f7fbff" stroke-width="1.51"/><path d="M258,210L269,207L256,167Z" fill="#0a4184" stroke="#0a4184" stroke-width="1.51"/><path d="M312,167L327,137L317,135Z" fill="#093b7b" stroke="#093b7b" stroke-width="1.51"/><path d="M325,84L338,70L307,55Z" fill="#4d72a2" stroke="#4d72a2" stroke-width="1.51"/><path d="M332,114L338,70L325,84Z" fill="#35669c" stroke="#35669c" stroke-width="1.51"/><path d="M317,135L332,114L308,127Z" fill="#134b8c" stroke="#134b8c" stroke-width="1.51"/><path d="M327,137L332,114L317,135Z" fill="#11498a" stroke="#11498a" stroke-width="1.51"/><path d="M312,167L275,140L286,177Z" fill="#083470" stroke="#083470" stroke-width="1.51"/><path d="M-5,-35L-13,-20L10,-14Z" fill="#f7fbff" stroke="#f7fbff" stroke-width="1.51"/><path d="M315,203L312,167L286,177Z" fill="#08306b" stroke="#08306b" stroke-width="1.51"/><path d="M9,-44L-5,-35L10,-14Z" fill="#f6faff" stroke="#f6faff" stroke-width="1.51"/><path d="M338,70L344,46L307,55Z" fill="#5d7aa6" stroke="#5d7aa6" stroke-width="1.51"/><path d="M343,169L344,46L338,70Z" fill="#2f6299" stroke="#2f6299" stroke-width="1.51"/><path d="M0,139L3,184L17,155Z" fill="#858db4" stroke="#858db4" stroke-width="1.51"/><path d="M-29,170L3,184L0,139Z" fill="#878eb3" stroke="#878eb3" stroke-width="1.51"/><path d="M-10,113L-41,142L0,139Z" fill="#95a9d3" stroke="#95a9d3" stroke-width="1.51"/><path d="M-16,68L-39,87L-13,88Z" fill="#b4d3ea" stroke="#b4d3ea" stroke-width="1.51"/><path d="M-43,65L-39,87L-16,68Z" fill="#bcd9ed" stroke="#bcd9ed" stroke-width="1.51"/><path d="M-40,33L-6,41L-17,2Z" fill="#e8f1fa" stroke="#e8f1fa" stroke-width="1.51"/><path d="M344,46L340,6L317,36Z" fill="#7584ad" stroke="#7584ad" stroke-width="1.51"/><path d="M-43,12L-40,33L-17,2Z" fill="#edf4fc" stroke="#edf4fc" stroke-width="1.51"/><path d="M-40,33L-43,65L-16,68Z" fill="#d0e4f1" stroke="#d0e4f1" stroke-width="1.51"/><path d="M340,6L337,-10L309,-8Z" fill="#878eb3" stroke="#878eb3" stroke-width="1.51"/><path d="M-13,-20L-26,-23L-17,2Z" fill="#f7fbff" stroke="#f7fbff" stroke-width="1.51"/><path d="M-5,-35L-26,-23L-13,-20Z" fill="#f7fbff" stroke="#f7fbff" stroke-width="1.51"/><path d="M-26,-48L-26,-23L-5,-35Z" fill="#f7fbff" stroke="#f7fbff" stroke-width="1.51"/><path d="M337,-10L327,-39L308,-27Z" fill="#878eb3" stroke="#878eb3" stroke-width="1.51"/><path d="M308,-27L327,-39L282,-35Z" fill="#878eb3" stroke="#878eb3" stroke-width="1.51"/><path d="M282,-35L327,-39L197,-50Z" fill="#909ec9" stroke="#909ec9" stroke-width="1.51"/><path d="M-40,33L-43,12L-43,65Z" fill="#e1ecf8" stroke="#e1ecf8" stroke-width="1.51"/><path d="M-26,-23L-43,12L-17,2Z" fill="#f7fbff" stroke="#f7fbff" stroke-width="1.51"/><path d="M-39,87L-47,114L-10,113Z" fill="#a2c1e1" stroke="#a2c1e1" stroke-width="1.51"/><path d="M-43,65L-47,114L-39,87Z" fill="#adcee7" stroke="#adcee7" stroke-width="1.51"/><path d="M-43,12L-47,114L-43,65Z" fill="#c7e0ef" stroke="#c7e0ef" stroke-width="1.51"/><path d="M-47,114L-41,142L-10,113Z" fill="#98b0d8" stroke="#98b0d8" stroke-width="1.51"/><path d="M-41,142L-29,170L0,139Z" fill="#8c97c0" stroke="#8c97c0" stroke-width="1.51"/><path d="M258,210L315,203L269,207Z" fill="#093877" stroke="#093877" stroke-width="1.51"/><path d="M269,207L315,203L286,177Z" fill="#093471" stroke="#093471" stroke-width="1.51"/><path d="M312,167L343,169L327,137Z" fill="#08326e" stroke="#08326e" stroke-width="1.51"/><path d="M327,137L343,169L332,114Z" fill="#094083" stroke="#094083" stroke-width="1.51"/><path d="M-26,-23L-26,-48L-43,12Z" fill="#f7fbff" stroke="#f7fbff" stroke-width="1.51"/><path d="M9,-44L-26,-48L-5,-35Z" fill="#f7fbff" stroke="#f7fbff" stroke-width="1.51"/><path d="M57,-46L-26,-48L9,-44Z" fill="#f3f8fe" stroke="#f3f8fe" stroke-width="1.51"/><path d="M197,-50L-26,-48L65,-46Z" fill="#ddeaf7" stroke="#ddeaf7" stroke-width="1.51"/><path d="M315,203L343,169L312,167Z" fill="#08306b" stroke="#08306b" stroke-width="1.51"/><path d="M332,114L343,169L338,70Z" fill="#195190" stroke="#195190" stroke-width="1.51"/><path d="M-36,187L-9,210L3,184Z" fill="#878eb3" stroke="#878eb3" stroke-width="1.51"/><path d="M3,184L-9,210L21,189Z" fill="#858db3" stroke="#858db3" stroke-width="1.51"/><path d="M21,189L-9,210L47,189Z" fill="#808bb1" stroke="#808bb1" stroke-width="1.51"/><path d="M194,207L-9,210L258,210Z" fill="#416da0" stroke="#416da0" stroke-width="1.51"/><path d="M-29,170L-36,187L3,184Z" fill="#878eb3" stroke="#878eb3" stroke-width="1.51"/><path d="M-41,142L-36,187L-29,170Z" fill="#878eb3" stroke="#878eb3" stroke-width="1.51"/><path d="M-47,114L-36,187L-41,142Z" fill="#8e9ac3" stroke="#8e9ac3" stroke-width="1.51"/><path d="M315,203L341,202L343,169Z" fill="#08306b" stroke="#08306b" stroke-width="1.51"/><path d="M258,210L341,202L315,203Z" fill="#08306b" stroke="#08306b" stroke-width="1.51"/></svg>